<svg xmlns="http://www.w3.org/2000/svg" viewBox="0 0 214.97 146.04"><defs><style>.cls-1{fill:#249b4b;}.cls-2{fill:#53d679;}.cls-3{fill:#047021;}.cls-4{fill:#e6e6e6;}</style></defs><title>Asset 76</title><g id="Layer_2" data-name="Layer 2"><g id="Layer_4" data-name="Layer 4"><path class="cls-1" d="M42.56,117v20a2.08,2.08,0,0,0,2.08,2.08h-8A2.08,2.08,0,0,0,38.75,137V117"/><path class="cls-2" d="M72.2,77.6c.19,0,1.11,0,1.3,0a5.64,5.64,0,0,1-.42,2.49c-.65,2-1.6,3.83-2.43,5.74-.14.33-.24.69-.39,1.11l2.2.58a22.33,22.33,0,0,1-4.18,8.95l2.24.46c-1.26,2.45-2.46,4.72-3.58,7-.25.51,1.17.2,1.07.77-.24,1.37-1.78,2.74-2.26,4s-.26,1.08-.35,2.55c-.12,2.08-3.65,6.36-4.59,8.49-.17.39-.42.82-.65,1.25V137a2.08,2.08,0,0,0,2.08,2.08h-8A2.08,2.08,0,0,0,56.35,137V120.51a14.68,14.68,0,0,1-1.1-1.64c-1.49-2.64-2.91-5.36-4.23-8.07a11.52,11.52,0,0,1-.43-2.45,3.58,3.58,0,0,0-.59-1.08c-1.13-1.73-2.35-3.41-3.39-5.18-.63-1.08,0-1.83,1.44-2.23-.31-.46-.57-.79-.77-1.15-1.21-2.18-2.53-4.33-3.52-6.58-.32-.72.25-1.74.77-2.55C43.67,87.73,42.69,85.92,42,84c-1.29-3.39-.82-2.14.35-3.15.24-.2,0-1-.2-1.39-1-2.12-2.08-4.11-1.36-6.61l2.06.09c-1.93-3.38-3.73-6.51-3.54-10.3l3,.13c-2.29-3.4-3.93-6.57-3.46-10.41,1.56.17,2.88.26,4.43.43C42,49.54,40.84,46.46,42,43L46.66,45a14.33,14.33,0,0,1,.21-10.74l3,1.27c.63-2.88,1.25-5.73,1.9-8.75l2.37.71a90.07,90.07,0,0,1,5.54-15.68L62.34,27.6c.43-.14,2,.06,2.58-.12.18,1.81.22,3.65.33,8.15l3.63-1.07c.76,2.32.12,4.34-.7,6.67,1.08-.21,2-.44,3.15-.66.91,3.41.92,7-.93,10l4.61.2c.46,3.82-1.38,6.54-2.69,9.78l3,.12c.73,3.84-1.76,6.65-3.34,10l2.87.38C75.37,73.71,73.31,75.51,72.2,77.6ZM61.94,122.69l0-.07,0,.11Zm2,1,0,0,0,.06Zm-3.46,2.45h0Z"/><path class="cls-3" d="M34.49,85.86c-.18.41-.37,1.08-.12,1.24,1.22.8,1.62-.34.54,2.75-.61,1.72-1.48,3.39-2.23,5.08.56.68,1.19,1.53.92,2.19-.86,2.06-2.05,4-3.13,6.06-.18.34-.42.65-.69,1.07,1.42.25,2.13.86,1.56,1.86-.93,1.63-2.05,3.21-3.08,4.82a3.09,3.09,0,0,0-.52,1,8.83,8.83,0,0,1-.29,2.19c-1.16,2.49-2.41,5-3.73,7.43a14.46,14.46,0,0,1-1.13,1.67v1.35h.08l-.08,0V137a2.09,2.09,0,0,0,2.09,2.08h-8A2.08,2.08,0,0,0,18.79,137V123.64c-.21-.28-.41-.56-.57-.82-1.06-1.81-4.83-5.3-5.07-7.12-.17-1.3.06-1.1-.5-2.22s-2.17-2.19-2.49-3.38c-.13-.49,1.3-.33,1-.76-1.25-1.94-2.58-3.85-4-5.91l2.2-.58A18.54,18.54,0,0,1,4.72,95.3l2.16-.68c-.17-.36-.29-.67-.46-1-.93-1.62-2-3.2-2.76-4.87a4.42,4.42,0,0,1-.56-2.15l1.29-.12C3.17,84.77,1,83.35,1.41,81l2.84-.56C2.48,77.55-.18,75.27.33,71.84l2.94-.34c-1.5-2.75-3.48-5-3.25-8.4l4.58-.53c-2-2.47-2.22-5.64-1.51-8.71,1.18.11,2.09.24,3.18.34-.95-2-1.71-3.72-1.09-5.81l3.68.66c-.16-4-.22-5.6-.15-7.2.54.11,2.14-.19,2.58-.1L13,27.62A71.61,71.61,0,0,1,19.42,41l2.32-.81c.83,2.61,1.62,5.07,2.41,7.56l3-1.35a11.27,11.27,0,0,1,.84,9.43l4.52-2.06c1.36,2.93.38,5.72-.69,8.7,1.54-.26,2.84-.45,4.39-.72.69,3.34-.76,6.26-2.84,9.43l3-.35c.41,3.33-1.2,6.22-2.92,9.34l2-.23C36.32,82.09,35.33,83.92,34.49,85.86ZM23.71,124.45l-.06,0a.36.36,0,0,1,0,.09Zm-5.06,1.63,0,0h0Zm5.92.26v0h0Zm-1.69,1h0Z"/><path class="cls-1" d="M52.46,71l1.29,0a6.51,6.51,0,0,1-.3,2.72C52.88,75.87,52,78,51.26,80.06c-.13.38-.21.77-.34,1.24l2.23.52a25.57,25.57,0,0,1-3.8,9.93l2.25.4c-1.14,2.72-2.25,5.25-3.27,7.81-.22.56,1.18.16,1.1.79-.18,1.5-1.66,3.06-2.08,4.49s-.22,1.18-.24,2.79c0,2.27-3.38,7.09-4.23,9.45a26.72,26.72,0,0,0-1.14,2.84H39.89l0,0-.07,0h.05a41.25,41.25,0,0,1-2.56-3.54c-1.6-2.81-3.13-5.7-4.56-8.59a13.1,13.1,0,0,1-.54-2.65,4.2,4.2,0,0,0-.63-1.15c-1.21-1.82-2.5-3.59-3.61-5.47-.68-1.14-.05-2,1.34-2.5-.32-.47-.6-.82-.82-1.21-1.3-2.32-2.71-4.58-3.8-7-.35-.77.18-1.9.66-2.81-.93-2-2-3.9-2.79-5.92-1.43-3.63-.91-2.3.21-3.45.23-.23,0-1-.26-1.51-1.05-2.25-2.25-4.36-1.63-7.12h2c-2.06-3.59-4-6.9-4-11h3c-2.43-3.59-4.2-7-3.9-11.16,1.57.11,2.89.15,4.45.26-1.41-3.5-2.71-6.79-1.69-10.57l4.73,1.88A16.85,16.85,0,0,1,25.3,25l3.08,1.23c.5-3.16,1-6.29,1.53-9.6l2.4.66A103.56,103.56,0,0,1,37.17,0l3.3,17.09c.43-.17,2.05,0,2.58-.24.25,1.95.37,3.95.68,8.84,1.19-.43,2.29-.86,3.57-1.33.86,2.48.31,4.71-.41,7.29,1.06-.28,2-.57,3.12-.87,1.05,3.66,1.22,7.58-.51,10.89h4.62c.62,4.14-1.1,7.18-2.27,10.76h3c.9,4.14-1.48,7.31-2.91,11.06l2.89.28C55.46,66.64,53.47,68.69,52.46,71ZM41.84,120.59v0l-.05-.06S41.83,120.55,41.84,120.59Zm-3.07-.28a.5.5,0,0,0,0-.12l0,.07ZM44,121.59v0a.21.21,0,0,1,0,.06Zm-5.84,1.11s0,0,0-.08l0,0Zm1.81,1,0,0,0,0Zm.66.73h0Z"/><path class="cls-4" d="M102.56,27.74V10.5a3.18,3.18,0,1,0-6.35,0V62.23a3.18,3.18,0,1,0,6.35,0V45a2.16,2.16,0,0,0-2.07-2.24h7.92A2.16,2.16,0,0,0,106.34,45V62.23a7.28,7.28,0,0,1-7,7.47c-3.78,0-6.92-3.39-6.92-7.47V10.5C92.43,6.42,95.57,3,99.35,3a7.28,7.28,0,0,1,7,7.47V27.74A2.16,2.16,0,0,0,108.41,30h-7.92A2.16,2.16,0,0,0,102.56,27.74Z"/><path class="cls-4" d="M129.8,69.7h-7.92a1.84,1.84,0,0,0,1.79-2.24l-1.29-12.93h-6.56l-1.28,12.93a1.83,1.83,0,0,0,1.78,2.24h-7.91a2.57,2.57,0,0,0,2.35-2.24l.07-.84,6.28-62.13a2,2,0,0,0-2-1.46H123a1.92,1.92,0,0,0-1.93,1.46l6.28,62.13.07.84A2.57,2.57,0,0,0,129.8,69.7ZM119.1,22l-2.85,28.41H122Z"/><path class="cls-4" d="M147.91,5.26v62.2A2.16,2.16,0,0,0,150,69.7h-8.56a2.16,2.16,0,0,0,2.07-2.24V66.39l-7.84-42.73v43.8a2.15,2.15,0,0,0,2.07,2.24H129.8a2.16,2.16,0,0,0,2.07-2.24V5.11A2.16,2.16,0,0,0,129.8,3h8.42a2.15,2.15,0,0,0-2.07,2.23v.39l8,43.42V5.26A2.15,2.15,0,0,0,142.07,3H150A2.16,2.16,0,0,0,147.91,5.26Z"/><path class="cls-4" d="M171.37,69.7h-7.91a1.83,1.83,0,0,0,1.78-2.24L164,54.53H157.4l-1.29,12.93a1.84,1.84,0,0,0,1.79,2.24H150a2.57,2.57,0,0,0,2.35-2.24l.08-.84,6.27-62.13a2,2,0,0,0-2-1.46h7.92a1.92,1.92,0,0,0-1.93,1.46L169,66.62l.07.84A2.58,2.58,0,0,0,171.37,69.7ZM160.68,22l-2.85,28.41h5.7Z"/><path class="cls-4" d="M187.35,10.5V31.82a8,8,0,0,1-2.21,5.47,7.94,7.94,0,0,1,2.21,5.46V62.23a7.28,7.28,0,0,1-7,7.47h-9a2.15,2.15,0,0,0,2.07-2.24V5.26A2.15,2.15,0,0,0,171.37,3h9A7.28,7.28,0,0,1,187.35,10.5Zm-7-3.39h-3.14V35.29h3.14a3.33,3.33,0,0,0,3.21-3.47V10.5A3.31,3.31,0,0,0,180.36,7.11Zm0,32.18h-3.14V65.62h3.14a3.31,3.31,0,0,0,3.21-3.39V42.75A3.33,3.33,0,0,0,180.36,39.29Z"/><path class="cls-4" d="M194.86,5.26v62.2a2.15,2.15,0,0,0,2.06,2.24H189a2.16,2.16,0,0,0,2.07-2.24V5.26A2.16,2.16,0,0,0,189,3h7.91A2.15,2.15,0,0,0,194.86,5.26Z"/><path class="cls-4" d="M215,30h-7.92a2.16,2.16,0,0,0,2.07-2.23V10.5a3.18,3.18,0,1,0-6.35,0V28.59c0,2.38,1.93,5.46,4.14,6.93,3.35,2.23,6,6.77,6,10.47V62.23a7.28,7.28,0,0,1-7,7.47c-3.78,0-6.92-3.39-6.92-7.47V45a2.16,2.16,0,0,0-2.07-2.24h7.92A2.16,2.16,0,0,0,202.77,45V62.23a3.18,3.18,0,1,0,6.35,0V46c0-2.39-1.93-5.47-4.14-6.93a13.76,13.76,0,0,1-6-10.47V10.5C199,6.42,202.13,3,205.91,3a7.28,7.28,0,0,1,7,7.47V27.74A2.15,2.15,0,0,0,215,30Z"/><path class="cls-4" d="M107.05,81.37v4.31a2.15,2.15,0,0,0-2-2.23H98.28v28.18H103a2.26,2.26,0,0,0,2.06-2.24v8.47a2.26,2.26,0,0,0-2.06-2.23H98.28v28.25a2.1,2.1,0,0,0,2.07,2.16H92.43a2.16,2.16,0,0,0,2.07-2.23V81.6a2.16,2.16,0,0,0-2.07-2.23h14.62Z"/><path class="cls-4" d="M128.45,146h-7.92a1.83,1.83,0,0,0,1.78-2.23L121,130.87h-6.56l-1.29,12.94A1.84,1.84,0,0,0,115,146h-7.92a2.57,2.57,0,0,0,2.35-2.23l.08-.85,6.27-62.13a1.94,1.94,0,0,0-2-1.46h7.91a1.92,1.92,0,0,0-1.93,1.46L126,143l.07.85A2.58,2.58,0,0,0,128.45,146Zm-10.7-47.65-2.85,28.4h5.7Z"/><path class="cls-4" d="M148.41,146h-8.06a1.61,1.61,0,0,0,1.57-2.08l-1.21-5.16-4.28-17.63h-2.14v22.64a2.16,2.16,0,0,0,2.07,2.23h-7.91a2.15,2.15,0,0,0,2.06-2.23V81.6a2.15,2.15,0,0,0-2.06-2.23h9.41c3.85,0,6.91,3.39,6.91,7.47v26.79a7.45,7.45,0,0,1-4.56,7.08l4.14,17,1.14,4.93.28,1.16A3,3,0,0,0,148.41,146Zm-10.55-28.95a3.33,3.33,0,0,0,3.21-3.46V86.84a3.31,3.31,0,0,0-3.21-3.39h-3.57v33.64Z"/><path class="cls-4" d="M173.44,146h-7.91a2.15,2.15,0,0,0,2.06-2.23V108.62l-4.63,36a1.93,1.93,0,0,0,1.92,1.39H157a1.92,1.92,0,0,0,1.92-1.39l-4.63-36v35.19a2.16,2.16,0,0,0,2.07,2.23h-7.92a2.16,2.16,0,0,0,2.07-2.23V81.6a2.16,2.16,0,0,0-2.07-2.23h8.06a2.11,2.11,0,0,0-2,1.62v.15l6.42,50,6.49-50V81a2.1,2.1,0,0,0-2-1.62h8.06a2.14,2.14,0,0,0-2.07,2.16v62.28A2.16,2.16,0,0,0,173.44,146Z"/></g></g></svg>