<svg xmlns="http://www.w3.org/2000/svg" viewBox="0 0 104.51 104.51"><defs><style>.cls-1,.cls-2{fill:none;stroke-miterlimit:10;stroke-width:4.37px;}.cls-1{stroke:#005cff;}.cls-2{stroke:#5de9f4;}</style></defs><title>Support</title><g id="Layer_2" data-name="Layer 2"><g id="Layer_1-2" data-name="Layer 1"><g id="Support"><path id="Path_90" data-name="Path 90" class="cls-1" d="M2.18,52.26A50.08,50.08,0,1,0,52.26,2.18h0A50.08,50.08,0,0,0,2.18,52.26Z"/><line id="Line_18" data-name="Line 18" class="cls-1" x1="41.18" y1="4.21" x2="41.18" y2="33.57"/><line id="Line_19" data-name="Line 19" class="cls-1" x1="63.33" y1="4.21" x2="63.33" y2="33.57"/><line id="Line_20" data-name="Line 20" class="cls-1" x1="41.18" y1="71.8" x2="41.18" y2="100.35"/><line id="Line_21" data-name="Line 21" class="cls-1" x1="63.33" y1="71.8" x2="63.33" y2="100.36"/><line id="Line_22" data-name="Line 22" class="cls-1" x1="4.18" y1="63.36" x2="33.44" y2="63.36"/><line id="Line_23" data-name="Line 23" class="cls-1" x1="4.18" y1="41.21" x2="33.44" y2="41.21"/><line id="Line_24" data-name="Line 24" class="cls-1" x1="70.88" y1="63.36" x2="100.33" y2="63.36"/><line id="Line_25" data-name="Line 25" class="cls-1" x1="70.88" y1="41.21" x2="100.33" y2="41.21"/><path id="Path_91" data-name="Path 91" class="cls-2" d="M30.26,52.25a22,22,0,1,0,22-22h0A22,22,0,0,0,30.26,52.25Z"/></g></g></g></svg>